<?xml version="1.0" encoding="utf-8"?>
<!-- Generator: Adobe Illustrator 21.0.0, SVG Export Plug-In . SVG Version: 6.00 Build 0)  -->
<svg version="1.1" id="Layer_1" xmlns="http://www.w3.org/2000/svg" xmlns:xlink="http://www.w3.org/1999/xlink" x="0px" y="0px"
	 viewBox="0 0 595.3 841.9" style="enable-background:new 0 0 595.3 841.9;" xml:space="preserve">
<style type="text/css">
	.st0{fill-rule:evenodd;clip-rule:evenodd;fill:#04BFBF;}
	.st1{fill:#04BFBF;}
</style>
<path class="st0" d="M115.1,421.1c0-30,24.3-54.3,54.3-54.3s54.3,24.3,54.3,54.3c0,30-24.3,54.3-54.3,54.3S115.1,451.2,115.1,421.1z
	 M168.2,439.7c-5.3,0-9.5-0.4-12.5-1.1c-3.3-0.8-5.6-2.7-6.9-5.5c-1.3-2.8-1.9-7.2-1.8-13.1c0-3.2,0.2-6.2,0.6-9.2
	c0.4-3,0.7-5.4,1.1-7.4l0.4-1.9c0-0.1,0-0.1,0-0.2c0-0.5-0.4-1-0.9-1.1l-7-1.1c-0.1,0-0.1,0-0.2,0c-0.5,0-1,0.4-1.1,0.8
	c-0.1,0.4-0.2,0.8-0.4,1.8c-0.4,2.1-0.8,4.1-1.2,7c-0.4,2.9-0.7,6.1-0.8,9.6c0,0-0.2,0.8,0,6.7c0.2,5.9,1.2,10.7,3.1,14.2
	c1.9,3.5,5,6.1,9.5,7.7c4.5,1.6,10.7,2.3,18.7,2.3h1c8,0,14.2-0.7,18.7-2.3c4.5-1.6,7.7-4.1,9.5-7.7c1.9-3.6,2.9-8.3,3.1-14.2
	c0.2-5.9,0-6.7,0-6.7c-0.1-3.5-0.4-6.7-0.8-9.6c-0.4-2.9-0.8-4.9-1.2-7c-0.2-1.1-0.3-1.4-0.4-1.8c-0.1-0.5-0.6-0.8-1.1-0.8
	c-0.1,0-0.1,0-0.2,0l-7,1.1c-0.5,0.1-0.9,0.5-0.9,1.1c0,0.1,0,0.1,0,0.2l0.4,1.9c0.4,1.9,0.7,4.4,1.1,7.4c0.4,3,0.5,6,0.6,9.2
	c0.1,5.9-0.5,10.2-1.8,13.1c-1.3,2.8-3.5,4.7-6.9,5.5c-3,0.8-7.2,1.1-12.5,1.1H168.2z"/>
<g>
	<path class="st1" d="M453.8,424.5c0-9.3,2.7-15.8,13.4-15.8c10.8,0,13.4,6.5,13.4,15.8c0,9.3-2.7,15.8-13.4,15.8
		C456.5,440.4,453.8,433.9,453.8,424.5z M473.8,424.5c0-6.5-0.8-10.2-6.6-10.2c-5.7,0-6.6,3.7-6.6,10.2c0,6.5,0.9,10.2,6.6,10.2
		C473,434.7,473.8,431,473.8,424.5z"/>
	<path class="st1" d="M267.9,439.2c0.2,0.3,0.4,0.5,0.8,0.5h2.5c0.5,0,0.9-0.4,0.9-0.9v-28.4c0-0.5-0.4-0.9-0.9-0.9h-5
		c-0.5,0-0.9,0.4-0.9,0.9v22.5c-1.6,0.9-3.8,1.8-7,1.8c-3.2,0-4.8-1.4-4.8-4.5v-19.8c0-0.5-0.4-0.9-0.9-0.9h-5
		c-0.5,0-0.9,0.4-0.9,0.9v20.4c0,5.8,2.7,9.6,10.4,9.6c3.3,0,6.7-1,9.8-3.1L267.9,439.2L267.9,439.2z"/>
	<path class="st1" d="M324.3,418.3c0-5.7-2.8-9.6-10-9.6c-3.3,0-6.9,1.1-9.7,3c-1.3-1.9-3.7-3-7.7-3c-3,0-6.6,1.2-9.1,3.1l-0.9-2v0
		c-0.2-0.3-0.4-0.5-0.8-0.5h-2.5c-0.5,0-0.9,0.4-0.9,0.9v28.4c0,0.5,0.4,0.9,0.9,0.9h5c0.5,0,0.9-0.4,0.9-0.9v-22.5
		c1.6-0.9,3.6-1.8,6.3-1.8c2.7,0,4.3,1,4.3,3.9l0,20.4c0,0.5,0.4,0.9,0.9,0.9h5c0.5,0,0.9-0.4,0.9-0.9l0-22.5
		c1.5-0.9,3.5-1.8,6.4-1.8c2.7,0,4.3,1,4.3,3.9v20.4c0,0.5,0.4,0.9,0.9,0.9h5c0.5,0,0.9-0.4,0.9-0.9V418.3z"/>
	<path class="st1" d="M339.8,437.2c2.7,1.9,5.7,3.1,9.8,3.1c8.8,0,12.1-5.9,12.1-15.8c0-9.9-3.3-15.8-12.1-15.8c-3,0-5.9,1-8.1,2.4
		v-9.1c0-0.5-0.4-0.9-0.9-0.9h-5c-0.5,0-0.9,0.4-0.9,0.9v36.8c0,0.5,0.4,0.9,0.9,0.9h2.5c0.3,0,0.6-0.2,0.8-0.5v0L339.8,437.2z
		 M348,434.6c-3.2,0-5.3-1.1-6.5-1.8v-16.7c1.2-0.7,3.3-1.8,6.5-1.8c5.9,0,6.8,4.5,6.8,10.1C354.8,430.2,353.9,434.6,348,434.6z"/>
	<path class="st1" d="M386.7,414.7c-0.7-0.1-1.5-0.1-2.4-0.1c-3.6,0-6.2,0.8-7.7,1.8v22.4c0,0.5-0.4,0.9-0.9,0.9h-5
		c-0.5,0-0.9-0.4-0.9-0.9v-28.4c0-0.5,0.4-0.9,0.9-0.9h2.5c0.3,0,0.6,0.2,0.8,0.5v0l0.9,2c2.2-1.8,5.6-3.1,9.5-3.1
		c0.9,0,1.7,0.1,2.4,0.2h0c0.5,0,0.8,0.8,0.8,1.2v3.6C387.7,414.3,387.3,414.7,386.7,414.7C386.7,414.7,386.7,414.7,386.7,414.7"/>
	<path class="st1" d="M404,425.7c-3,0.4-4.8,1.5-4.8,4.6c0,2.3,1,4.5,4.7,4.5c2.7,0,4.6-0.8,6.5-2V425L404,425.7z M412,437.2
		c-2.4,2-5.8,3.1-9.1,3.1c-7.8,0-10.4-4.8-10.4-9.7c0-6.5,4.2-9.3,11.1-9.9l6.8-0.5v-1.5c0-3.1-1.5-4.3-5.9-4.3
		c-3.3,0-6.1,0.6-8.3,1.4c-0.1,0-0.2,0-0.3,0c-0.5,0-0.9-0.4-0.9-0.9v-4c0-0.4,0.2-0.7,0.6-0.8h0c2.4-0.9,6-1.5,9.3-1.5
		c9.9,0,12.2,4.4,12.2,10.8v19.3c0,0.5-0.4,0.9-0.9,0.9h-2.5c-0.3,0-0.6-0.2-0.8-0.5v0L412,437.2z"/>
	<path class="st1" d="M446.4,433.4c0.1,0,0.2,0,0.3,0c0.5,0,0.9,0.4,0.9,0.9v4c0,0.4-0.2,0.7-0.5,0.8l0,0c-2.2,0.9-4.9,1.3-7.8,1.3
		c-10.7,0-14-6.4-14-15.8c0-9.4,3.3-15.8,14-15.8c2.9,0,5.5,0.4,7.8,1.3l0,0c0.3,0.1,0.6,0.5,0.6,0.8v4c0,0.5-0.4,0.9-0.9,0.9
		c-0.1,0-0.2,0-0.3,0l0,0c-1.8-0.6-3.9-1-6.7-1c-5.9,0-7.6,4-7.6,9.9c0,5.9,1.7,9.8,7.6,9.8C442.6,434.4,444.6,434,446.4,433.4"/>
</g>
</svg>
